<mxfile host="app.diagrams.net" agent="Mozilla/5.0 (Windows NT 10.0; Win64; x64) AppleWebKit/537.36 (KHTML, like Gecko) Chrome/127.0.0.0 Safari/537.36" version="24.7.7">
  <diagram name="第 1 页" id="nXi7DUNsmYNW9hoYbPo3">
    <mxGraphModel dx="620" dy="635" grid="1" gridSize="10" guides="1" tooltips="1" connect="1" arrows="1" fold="1" page="1" pageScale="1" pageWidth="827" pageHeight="1169" math="0" shadow="0">
      <root>
        <mxCell id="0" />
        <mxCell id="1" parent="0" />
        <mxCell id="KKuV9p1igcqyzRUYkqMb-2" value="开始" style="strokeWidth=2;html=1;shape=mxgraph.flowchart.terminator;whiteSpace=wrap;" vertex="1" parent="1">
          <mxGeometry x="460" y="80" width="100" height="60" as="geometry" />
        </mxCell>
        <mxCell id="KKuV9p1igcqyzRUYkqMb-3" value="完成" style="strokeWidth=2;html=1;shape=mxgraph.flowchart.terminator;whiteSpace=wrap;" vertex="1" parent="1">
          <mxGeometry x="460" y="570" width="100" height="60" as="geometry" />
        </mxCell>
        <mxCell id="KKuV9p1igcqyzRUYkqMb-15" value="" style="edgeStyle=orthogonalEdgeStyle;rounded=0;orthogonalLoop=1;jettySize=auto;html=1;" edge="1" parent="1" source="KKuV9p1igcqyzRUYkqMb-5" target="KKuV9p1igcqyzRUYkqMb-7">
          <mxGeometry relative="1" as="geometry" />
        </mxCell>
        <mxCell id="KKuV9p1igcqyzRUYkqMb-5" value="确保核心功能正常" style="rounded=1;whiteSpace=wrap;html=1;absoluteArcSize=1;arcSize=14;strokeWidth=2;" vertex="1" parent="1">
          <mxGeometry x="440" y="170" width="140" height="50" as="geometry" />
        </mxCell>
        <mxCell id="KKuV9p1igcqyzRUYkqMb-6" value="集成自动微分机制" style="rounded=1;whiteSpace=wrap;html=1;absoluteArcSize=1;arcSize=14;strokeWidth=2;" vertex="1" parent="1">
          <mxGeometry x="440" y="250" width="140" height="50" as="geometry" />
        </mxCell>
        <mxCell id="KKuV9p1igcqyzRUYkqMb-18" value="" style="edgeStyle=orthogonalEdgeStyle;rounded=0;orthogonalLoop=1;jettySize=auto;html=1;" edge="1" parent="1" source="KKuV9p1igcqyzRUYkqMb-7" target="KKuV9p1igcqyzRUYkqMb-9">
          <mxGeometry relative="1" as="geometry" />
        </mxCell>
        <mxCell id="KKuV9p1igcqyzRUYkqMb-7" value="支持高级特性" style="rounded=1;whiteSpace=wrap;html=1;absoluteArcSize=1;arcSize=14;strokeWidth=2;" vertex="1" parent="1">
          <mxGeometry x="440" y="330" width="140" height="50" as="geometry" />
        </mxCell>
        <mxCell id="KKuV9p1igcqyzRUYkqMb-8" value="启动混合精度训练" style="rounded=1;whiteSpace=wrap;html=1;absoluteArcSize=1;arcSize=14;strokeWidth=2;" vertex="1" parent="1">
          <mxGeometry x="440" y="410" width="140" height="50" as="geometry" />
        </mxCell>
        <mxCell id="KKuV9p1igcqyzRUYkqMb-24" value="" style="edgeStyle=orthogonalEdgeStyle;rounded=0;orthogonalLoop=1;jettySize=auto;html=1;" edge="1" parent="1" source="KKuV9p1igcqyzRUYkqMb-9" target="KKuV9p1igcqyzRUYkqMb-3">
          <mxGeometry relative="1" as="geometry" />
        </mxCell>
        <mxCell id="KKuV9p1igcqyzRUYkqMb-9" value="进行性能优化" style="rounded=1;whiteSpace=wrap;html=1;absoluteArcSize=1;arcSize=14;strokeWidth=2;" vertex="1" parent="1">
          <mxGeometry x="440" y="490" width="140" height="50" as="geometry" />
        </mxCell>
        <mxCell id="KKuV9p1igcqyzRUYkqMb-10" value="调整设备管理和&lt;br&gt;内存分配策略" style="rounded=1;whiteSpace=wrap;html=1;absoluteArcSize=1;arcSize=14;strokeWidth=2;" vertex="1" parent="1">
          <mxGeometry x="600" y="250" width="140" height="50" as="geometry" />
        </mxCell>
        <mxCell id="KKuV9p1igcqyzRUYkqMb-11" value="集成基础操作符" style="rounded=1;whiteSpace=wrap;html=1;absoluteArcSize=1;arcSize=14;strokeWidth=2;" vertex="1" parent="1">
          <mxGeometry x="280" y="250" width="140" height="50" as="geometry" />
        </mxCell>
        <mxCell id="KKuV9p1igcqyzRUYkqMb-12" value="适配模型压缩量化工具" style="rounded=1;whiteSpace=wrap;html=1;absoluteArcSize=1;arcSize=14;strokeWidth=2;" vertex="1" parent="1">
          <mxGeometry x="600" y="410" width="140" height="50" as="geometry" />
        </mxCell>
        <mxCell id="KKuV9p1igcqyzRUYkqMb-13" value="集成分布式训练框架" style="rounded=1;whiteSpace=wrap;html=1;absoluteArcSize=1;arcSize=14;strokeWidth=2;" vertex="1" parent="1">
          <mxGeometry x="280" y="410" width="140" height="50" as="geometry" />
        </mxCell>
        <mxCell id="KKuV9p1igcqyzRUYkqMb-14" value="" style="endArrow=classic;html=1;rounded=0;exitX=0.5;exitY=1;exitDx=0;exitDy=0;exitPerimeter=0;entryX=0.5;entryY=0;entryDx=0;entryDy=0;" edge="1" parent="1" source="KKuV9p1igcqyzRUYkqMb-2" target="KKuV9p1igcqyzRUYkqMb-5">
          <mxGeometry width="50" height="50" relative="1" as="geometry">
            <mxPoint x="500" y="320" as="sourcePoint" />
            <mxPoint x="550" y="270" as="targetPoint" />
          </mxGeometry>
        </mxCell>
        <mxCell id="KKuV9p1igcqyzRUYkqMb-20" value="" style="endArrow=classic;html=1;rounded=0;exitX=0;exitY=0.5;exitDx=0;exitDy=0;entryX=0.5;entryY=0;entryDx=0;entryDy=0;" edge="1" parent="1" source="KKuV9p1igcqyzRUYkqMb-5" target="KKuV9p1igcqyzRUYkqMb-11">
          <mxGeometry width="50" height="50" relative="1" as="geometry">
            <mxPoint x="500" y="320" as="sourcePoint" />
            <mxPoint x="550" y="270" as="targetPoint" />
            <Array as="points">
              <mxPoint x="350" y="195" />
            </Array>
          </mxGeometry>
        </mxCell>
        <mxCell id="KKuV9p1igcqyzRUYkqMb-21" value="" style="endArrow=classic;html=1;rounded=0;exitX=1;exitY=0.5;exitDx=0;exitDy=0;entryX=0.5;entryY=0;entryDx=0;entryDy=0;" edge="1" parent="1" source="KKuV9p1igcqyzRUYkqMb-5" target="KKuV9p1igcqyzRUYkqMb-10">
          <mxGeometry width="50" height="50" relative="1" as="geometry">
            <mxPoint x="450" y="205" as="sourcePoint" />
            <mxPoint x="360" y="260" as="targetPoint" />
            <Array as="points">
              <mxPoint x="670" y="195" />
            </Array>
          </mxGeometry>
        </mxCell>
        <mxCell id="KKuV9p1igcqyzRUYkqMb-22" value="" style="endArrow=classic;html=1;rounded=0;exitX=0;exitY=0.5;exitDx=0;exitDy=0;entryX=0.5;entryY=0;entryDx=0;entryDy=0;" edge="1" parent="1">
          <mxGeometry width="50" height="50" relative="1" as="geometry">
            <mxPoint x="440" y="355" as="sourcePoint" />
            <mxPoint x="350" y="410" as="targetPoint" />
            <Array as="points">
              <mxPoint x="350" y="355" />
            </Array>
          </mxGeometry>
        </mxCell>
        <mxCell id="KKuV9p1igcqyzRUYkqMb-23" value="" style="endArrow=classic;html=1;rounded=0;exitX=1;exitY=0.5;exitDx=0;exitDy=0;entryX=0.5;entryY=0;entryDx=0;entryDy=0;" edge="1" parent="1">
          <mxGeometry width="50" height="50" relative="1" as="geometry">
            <mxPoint x="580" y="355" as="sourcePoint" />
            <mxPoint x="670" y="410" as="targetPoint" />
            <Array as="points">
              <mxPoint x="670" y="355" />
            </Array>
          </mxGeometry>
        </mxCell>
      </root>
    </mxGraphModel>
  </diagram>
</mxfile>
